<svg width="28" height="28" viewBox="0 0 28 28" fill="none" xmlns="http://www.w3.org/2000/svg">
    <path d="M7.3368 15.8336C7.78584 15.8336 8.21649 15.6552 8.53401 15.3377C8.85153 15.0202 9.02991 14.5895 9.02991 14.1405C9.02991 13.6914 8.85153 13.2608 8.53401 12.9433C8.21649 12.6258 7.78584 12.4474 7.3368 12.4474C6.88776 12.4474 6.45711 12.6258 6.13959 12.9433C5.82207 13.2608 5.64369 13.6914 5.64369 14.1405C5.64369 14.5895 5.82207 15.0202 6.13959 15.3377C6.45711 15.6552 6.88776 15.8336 7.3368 15.8336ZM9.02991 19.7842C9.02991 20.2332 8.85153 20.6639 8.53401 20.9814C8.21649 21.2989 7.78584 21.4773 7.3368 21.4773C6.88776 21.4773 6.45711 21.2989 6.13959 20.9814C5.82207 20.6639 5.64369 20.2332 5.64369 19.7842C5.64369 19.3351 5.82207 18.9045 6.13959 18.587C6.45711 18.2694 6.88776 18.0911 7.3368 18.0911C7.78584 18.0911 8.21649 18.2694 8.53401 18.587C8.85153 18.9045 9.02991 19.3351 9.02991 19.7842ZM13.5449 21.4773C13.9939 21.4773 14.4245 21.2989 14.7421 20.9814C15.0596 20.6639 15.238 20.2332 15.238 19.7842C15.238 19.3351 15.0596 18.9045 14.7421 18.587C14.4245 18.2694 13.9939 18.0911 13.5449 18.0911C13.0958 18.0911 12.6652 18.2694 12.3477 18.587C12.0301 18.9045 11.8518 19.3351 11.8518 19.7842C11.8518 20.2332 12.0301 20.6639 12.3477 20.9814C12.6652 21.2989 13.0958 21.4773 13.5449 21.4773ZM15.238 14.1405C15.238 14.5895 15.0596 15.0202 14.7421 15.3377C14.4245 15.6552 13.9939 15.8336 13.5449 15.8336C13.0958 15.8336 12.6652 15.6552 12.3477 15.3377C12.0301 15.0202 11.8518 14.5895 11.8518 14.1405C11.8518 13.6914 12.0301 13.2608 12.3477 12.9433C12.6652 12.6258 13.0958 12.4474 13.5449 12.4474C13.9939 12.4474 14.4245 12.6258 14.7421 12.9433C15.0596 13.2608 15.238 13.6914 15.238 14.1405ZM19.7529 15.8336C20.202 15.8336 20.6326 15.6552 20.9501 15.3377C21.2676 15.0202 21.446 14.5895 21.446 14.1405C21.446 13.6914 21.2676 13.2608 20.9501 12.9433C20.6326 12.6258 20.202 12.4474 19.7529 12.4474C19.3039 12.4474 18.8732 12.6258 18.5557 12.9433C18.2382 13.2608 18.0598 13.6914 18.0598 14.1405C18.0598 14.5895 18.2382 15.0202 18.5557 15.3377C18.8732 15.6552 19.3039 15.8336 19.7529 15.8336ZM0 5.67494C0 4.17814 0.594601 2.74265 1.653 1.68425C2.7114 0.625851 4.14689 0.03125 5.64369 0.03125H21.446C22.9428 0.03125 24.3783 0.625851 25.4367 1.68425C26.4951 2.74265 27.0897 4.17814 27.0897 5.67494V21.4773C27.0897 22.9741 26.4951 24.4096 25.4367 25.468C24.3783 26.5264 22.9428 27.121 21.446 27.121H5.64369C4.14689 27.121 2.7114 26.5264 1.653 25.468C0.594601 24.4096 0 22.9741 0 21.4773V5.67494ZM5.64369 2.28873C4.74561 2.28873 3.88431 2.64549 3.24928 3.28053C2.61424 3.91556 2.25748 4.77686 2.25748 5.67494V6.80368H24.8322V5.67494C24.8322 4.77686 24.4755 3.91556 23.8404 3.28053C23.2054 2.64549 22.3441 2.28873 21.446 2.28873H5.64369ZM2.25748 21.4773C2.25748 22.3754 2.61424 23.2367 3.24928 23.8717C3.88431 24.5067 4.74561 24.8635 5.64369 24.8635H21.446C22.3441 24.8635 23.2054 24.5067 23.8404 23.8717C24.4755 23.2367 24.8322 22.3754 24.8322 21.4773V9.06116H2.25748V21.4773Z" fill="white"/>
</svg>
