<svg width="46" height="46" viewBox="0 0 46 46" fill="none" xmlns="http://www.w3.org/2000/svg">
    <rect width="45.7966" height="45.7973" rx="22.8983" fill="#B28D28" fill-opacity="0.2"/>
    <path fill-rule="evenodd" clip-rule="evenodd" d="M22.9006 10.2891C26.2715 10.2891 29.4395 11.5997 31.8191 13.9804C36.7377 18.899 36.7377 26.9011 31.8191 31.8197C29.4079 34.2321 26.1613 35.5087 22.8724 35.5087C21.0795 35.5087 19.275 35.1297 17.5865 34.3483C17.089 34.1488 16.6232 33.9611 16.2888 33.9611C15.904 33.9634 15.3865 34.1418 14.8867 34.3142C13.8612 34.6662 12.5846 35.1051 11.6401 34.1641C10.6991 33.2219 11.1332 31.9488 11.4829 30.9245C11.6553 30.4199 11.8325 29.899 11.8325 29.5047C11.8325 29.1809 11.6765 28.7679 11.4371 28.173C9.23944 23.4269 10.2555 17.7069 13.9832 13.9815C16.3627 11.6008 19.5296 10.2891 22.9006 10.2891ZM22.9017 12.0491C20.0001 12.0491 17.2744 13.1778 15.227 15.2264C12.0191 18.432 11.1461 23.3541 13.0528 27.476C13.3273 28.1554 13.5925 28.8172 13.5925 29.5047C13.5925 30.1911 13.3567 30.8822 13.149 31.4924C12.9777 31.9946 12.7184 32.7525 12.885 32.9191C13.0481 33.0881 13.8107 32.8218 14.3141 32.6493C14.9184 32.4428 15.6036 32.2058 16.283 32.2011C16.9635 32.2011 17.6053 32.4592 18.2847 32.7326C22.4465 34.6569 27.3686 33.7815 30.5753 30.576C34.8064 26.3426 34.8064 19.4563 30.5753 15.2253C28.5267 13.1766 25.8022 12.0491 22.9017 12.0491ZM27.5328 22.2133C28.1804 22.2133 28.7061 22.7378 28.7061 23.3866C28.7061 24.0355 28.1804 24.56 27.5328 24.56C26.8851 24.56 26.3547 24.0355 26.3547 23.3866C26.3547 22.7378 26.8745 22.2133 27.5222 22.2133H27.5328ZM22.8291 22.2133C23.4768 22.2133 24.0024 22.7378 24.0024 23.3866C24.0024 24.0355 23.4768 24.56 22.8291 24.56C22.1814 24.56 21.6511 24.0355 21.6511 23.3866C21.6511 22.7378 22.1697 22.2133 22.8185 22.2133H22.8291ZM18.125 22.2133C18.7727 22.2133 19.2983 22.7378 19.2983 23.3866C19.2983 24.0355 18.7727 24.56 18.125 24.56C17.4773 24.56 16.947 24.0355 16.947 23.3866C16.947 22.7378 17.4667 22.2133 18.1144 22.2133H18.125Z" fill="#B28D28"/>
</svg>
