<svg width="47" height="47" viewBox="0 0 47 47" fill="none" xmlns="http://www.w3.org/2000/svg">
    <rect x="0.786133" y="0.92041" width="45.7966" height="45.7973" rx="22.8983" fill="white" fill-opacity="0.2"/>
    <path fill-rule="evenodd" clip-rule="evenodd" d="M23.6867 11.2095C27.0577 11.2095 30.2257 12.5201 32.6052 14.9008C37.5238 19.8194 37.5238 27.8215 32.6052 32.7401C30.194 35.1525 26.9474 36.4291 23.6585 36.4291C21.8657 36.4291 20.0611 36.0501 18.3727 35.2687C17.8752 35.0692 17.4094 34.8815 17.075 34.8815C16.6901 34.8838 16.1727 35.0622 15.6728 35.2346C14.6473 35.5866 13.3707 36.0255 12.4262 35.0845C11.4852 34.1423 11.9193 32.8692 12.269 31.8449C12.4415 31.3404 12.6186 30.8194 12.6186 30.4252C12.6186 30.1013 12.4626 29.6883 12.2232 29.0934C10.0256 24.3473 11.0417 18.6273 14.7694 14.902C17.1489 12.5213 20.3157 11.2095 23.6867 11.2095ZM23.6879 12.9695C20.7862 12.9695 18.0606 14.0982 16.0131 16.1469C12.8052 19.3524 11.9322 24.2745 13.8389 28.3965C14.1135 29.0758 14.3786 29.7376 14.3786 30.4252C14.3786 31.1116 14.1428 31.8026 13.9351 32.4128C13.7638 32.915 13.5045 33.6729 13.6711 33.8396C13.8342 34.0085 14.5969 33.7422 15.1002 33.5697C15.7045 33.3632 16.3897 33.1262 17.0691 33.1215C17.7496 33.1215 18.3914 33.3796 19.0708 33.653C23.2326 35.5773 28.1547 34.702 31.3615 31.4964C35.5925 27.263 35.5925 20.3767 31.3615 16.1457C29.3128 14.097 26.5883 12.9695 23.6879 12.9695ZM28.3189 23.1337C28.9666 23.1337 29.4922 23.6582 29.4922 24.307C29.4922 24.9559 28.9666 25.4804 28.3189 25.4804C27.6712 25.4804 27.1409 24.9559 27.1409 24.307C27.1409 23.6582 27.6607 23.1337 28.3083 23.1337H28.3189ZM23.6152 23.1337C24.2629 23.1337 24.7886 23.6582 24.7886 24.307C24.7886 24.9559 24.2629 25.4804 23.6152 25.4804C22.9676 25.4804 22.4372 24.9559 22.4372 24.307C22.4372 23.6582 22.9558 23.1337 23.6047 23.1337H23.6152ZM18.9111 23.1337C19.5588 23.1337 20.0844 23.6582 20.0844 24.307C20.0844 24.9559 19.5588 25.4804 18.9111 25.4804C18.2634 25.4804 17.7331 24.9559 17.7331 24.307C17.7331 23.6582 18.2529 23.1337 18.9006 23.1337H18.9111Z" fill="white"/>
</svg>
