<svg width="21" height="21" viewBox="0 0 21 21" fill="none" xmlns="http://www.w3.org/2000/svg">
    <path d="M10.0035 1.99683H3.00078C2.47014 1.99683 1.96123 2.20762 1.58601 2.58284C1.2108 2.95806 1 3.46697 1 3.99761V18.0031C1 18.5337 1.2108 19.0426 1.58601 19.4178C1.96123 19.793 2.47014 20.0038 3.00078 20.0038H17.0062C17.5369 20.0038 18.0458 19.793 18.421 19.4178C18.7962 19.0426 19.007 18.5337 19.007 18.0031V11.0003" stroke="white" stroke-opacity="0.8" stroke-width="2" stroke-linecap="round" stroke-linejoin="round"/>
    <path d="M16.3811 1.62156C16.7791 1.22358 17.3189 1 17.8817 1C18.4445 1 18.9843 1.22358 19.3823 1.62156C19.7802 2.01954 20.0038 2.55932 20.0038 3.12215C20.0038 3.68498 19.7802 4.22475 19.3823 4.62273L10.3657 13.6402C10.1282 13.8776 9.83475 14.0513 9.51242 14.1454L6.6383 14.9858C6.55221 15.0109 6.46097 15.0124 6.3741 14.9901C6.28724 14.9679 6.20796 14.9227 6.14455 14.8593C6.08115 14.7959 6.03595 14.7166 6.0137 14.6297C5.99144 14.5429 5.99295 14.4516 6.01805 14.3655L6.85838 11.4914C6.95295 11.1693 7.12702 10.8762 7.36458 10.6391L16.3811 1.62156Z" stroke="white" stroke-opacity="0.8" stroke-width="2" stroke-linecap="round" stroke-linejoin="round"/>
</svg>
