<svg width="10" height="16" viewBox="0 0 10 16" fill="none" xmlns="http://www.w3.org/2000/svg">
    <path d="M9.68734 5.15506C9.68734 2.46756 7.45359 0.291306 4.74359 0.392556C2.28359 0.495056 0.276093 2.48006 0.163593 4.94006C0.0498426 7.35506 1.74984 9.14631 4.01859 9.58881V11.2938H2.04609C1.79609 11.2938 1.59234 11.4976 1.59234 11.7476V12.5301C1.59234 12.7801 1.80609 12.9238 2.05484 12.9238H4.02734L4.01859 14.5901C4.01859 14.8401 4.22234 15.0438 4.47234 15.0438H5.37984C5.62984 15.0438 5.83359 14.8401 5.83359 14.5901L5.84234 12.9238H7.81484C8.06484 12.9238 8.25984 12.7788 8.25984 12.5301V11.7476C8.25984 11.4976 8.05609 11.2938 7.80609 11.2938H5.83234V9.57631C8.03234 9.15756 9.68734 7.48006 9.68734 5.15506ZM2.03359 5.10381C2.03234 3.24006 3.28359 2.11631 4.91109 2.11631C6.75234 2.11631 7.82859 3.56256 7.79484 5.23756C7.76484 6.81381 6.50109 8.01256 4.92484 8.01256C3.34859 8.01256 2.03484 6.87256 2.03359 5.10381Z" fill="#C71FFF"/>
</svg>
