<svg width="46" height="45" viewBox="0 0 46 45" fill="none" xmlns="http://www.w3.org/2000/svg">
    <rect width="45.6238" height="44.891" rx="22.4455" fill="#B28D28" fill-opacity="0.2"/>
    <path d="M15.3826 13.307C17.3697 11.3596 20.045 10.2751 22.8272 10.2892C25.6094 10.3032 28.2736 11.4147 30.2409 13.382C32.2082 15.3493 33.3197 18.0136 33.3337 20.7957C33.3478 23.5779 32.2633 26.2532 30.3159 28.2403L24.7346 33.8216C24.2345 34.3216 23.5564 34.6024 22.8493 34.6024C22.1422 34.6024 21.464 34.3216 20.9639 33.8216L15.3826 28.2403C13.4025 26.26 12.29 23.5741 12.29 20.7736C12.29 17.9731 13.4025 15.2873 15.3826 13.307Z" stroke="#B28D28" stroke-width="1.5" stroke-linejoin="round"/>
    <path d="M22.8496 24.7734C25.0587 24.7734 26.8496 22.9826 26.8496 20.7734C26.8496 18.5643 25.0587 16.7734 22.8496 16.7734C20.6405 16.7734 18.8496 18.5643 18.8496 20.7734C18.8496 22.9826 20.6405 24.7734 22.8496 24.7734Z" stroke="#B28D28" stroke-width="1.5" stroke-linecap="round" stroke-linejoin="round"/>
</svg>
