<svg width="25" height="24" viewBox="0 0 25 24" fill="none" xmlns="http://www.w3.org/2000/svg">
    <path fill-rule="evenodd" clip-rule="evenodd" d="M17.2353 11.9497C17.2353 11.718 17.1433 11.4958 16.9795 11.332C16.8157 11.1682 16.5935 11.0762 16.3619 11.0762H3.58286L5.86662 9.11971C5.95379 9.04508 6.02541 8.95401 6.07739 8.85169C6.12936 8.74938 6.16068 8.63784 6.16955 8.52342C6.17841 8.40901 6.16466 8.29397 6.12907 8.18487C6.09348 8.07577 6.03674 7.97475 5.96211 7.88758C5.88748 7.8004 5.79641 7.72878 5.6941 7.67681C5.59178 7.62483 5.48024 7.59351 5.36582 7.58464C5.25141 7.57578 5.13637 7.58953 5.02727 7.62512C4.91817 7.66072 4.81715 7.71745 4.72998 7.79208L0.653916 11.2858C0.55803 11.3678 0.481047 11.4696 0.428262 11.5842C0.375477 11.6988 0.348145 11.8235 0.348145 11.9497C0.348145 12.0758 0.375477 12.2005 0.428262 12.3151C0.481047 12.4297 0.55803 12.5315 0.653916 12.6135L4.72998 16.1072C4.90603 16.258 5.13475 16.3326 5.36582 16.3147C5.59689 16.2968 5.81138 16.1878 5.96211 16.0117C6.11284 15.8357 6.18746 15.607 6.16955 15.3759C6.15164 15.1448 6.04267 14.9303 5.86662 14.7796L3.58402 12.8231H16.3619C16.5935 12.8231 16.8157 12.7311 16.9795 12.5673C17.1433 12.4035 17.2353 12.1813 17.2353 11.9497Z" fill="#BD3D44"/>
    <path d="M9.37451 7.29149C9.37451 8.10903 9.37451 8.5178 9.57133 8.81244C9.65609 8.93912 9.76491 9.04794 9.89159 9.1327C10.1862 9.32952 10.595 9.32952 11.4125 9.32952H16.362C17.057 9.32952 17.7235 9.60559 18.2149 10.097C18.7063 10.5884 18.9824 11.2549 18.9824 11.9498C18.9824 12.6448 18.7063 13.3113 18.2149 13.8027C17.7235 14.2941 17.057 14.5702 16.362 14.5702H11.4125C10.595 14.5702 10.1862 14.5702 9.89159 14.7658C9.76479 14.8509 9.65597 14.9601 9.57133 15.0872C9.37451 15.3819 9.37451 15.7907 9.37451 16.6082C9.37451 19.9017 9.37451 21.5495 10.3982 22.5721C11.4207 23.5957 13.0674 23.5957 16.3609 23.5957H17.5255C20.8213 23.5957 22.4668 23.5957 23.4905 22.5721C24.5142 21.5495 24.5142 19.9017 24.5142 16.6082V7.29149C24.5142 3.99803 24.5142 2.35014 23.4905 1.32763C22.4668 0.30512 20.8201 0.303955 17.5266 0.303955H16.362C13.0674 0.303955 11.4207 0.303955 10.3982 1.32763C9.37451 2.35014 9.37451 3.99803 9.37451 7.29149Z" fill="#BD3D44"/>
</svg>
