<svg width="16" height="15" viewBox="0 0 16 15" fill="none" xmlns="http://www.w3.org/2000/svg">
    <path d="M13.3388 0.483643H9.5676C9.28885 0.483643 9.0601 0.712393 9.0601 0.991143V1.87739C9.0601 2.15614 9.28885 2.38489 9.5676 2.38489H11.6001C11.7138 2.38489 11.8838 2.54489 11.6888 2.72989L8.9076 5.37489C6.7751 3.92739 3.80385 4.20739 1.98885 6.19989C0.110097 8.24364 0.135097 11.3011 2.02635 13.3199C4.09635 15.5161 7.56135 15.5549 9.68135 13.4336C11.5226 11.5924 11.6288 8.74114 10.2201 6.67114L13.0313 4.01614C13.2001 3.86614 13.3513 4.09364 13.3263 4.25364V6.15614C13.3263 6.43489 13.5551 6.66364 13.8338 6.66364H14.8501C15.1288 6.66364 15.3576 6.43489 15.3576 6.15614V0.992393C15.3576 0.713643 15.1288 0.484893 14.8501 0.484893C14.8626 0.483643 13.3388 0.483643 13.3388 0.483643ZM8.18385 12.0536C6.9401 13.2974 4.90885 13.2974 3.65135 12.0536C2.39385 10.8099 2.4076 8.64864 3.65135 7.40489C4.8951 6.16114 6.92635 6.16114 8.18385 7.40489C9.44135 8.64864 9.4276 10.8086 8.18385 12.0536Z" fill="url(#paint0_linear_1_4901)"/>
    <defs>
        <linearGradient id="paint0_linear_1_4901" x1="7.97547" y1="0.519393" x2="7.97547" y2="14.9723" gradientUnits="userSpaceOnUse">
            <stop stop-color="#00BFA5"/>
            <stop offset="0.705" stop-color="#00B29A"/>
            <stop offset="1" stop-color="#00AB94"/>
        </linearGradient>
    </defs>
</svg>
