<svg width="46" height="47" viewBox="0 0 46 47" fill="none" xmlns="http://www.w3.org/2000/svg">
    <circle cx="23.244" cy="23.5697" r="22.7093" fill="white"/>
    <path d="M20.2691 20.3255C20.6275 20.3255 20.9712 20.4685 21.2246 20.7228C21.478 20.9772 21.6204 21.3223 21.6204 21.682V26.4285C21.6204 26.6066 21.5854 26.7829 21.5175 26.9475C21.4496 27.112 21.35 27.2615 21.2246 27.3874C21.0991 27.5133 20.9501 27.6131 20.7862 27.6812C20.6222 27.7493 20.4465 27.7843 20.2691 27.7842C19.911 27.7842 19.5675 27.6413 19.3142 27.3871C19.061 27.1329 18.9187 26.788 18.9187 26.4285V21.682C18.9187 21.3224 19.0609 20.9775 19.3142 20.7231C19.5674 20.4688 19.9109 20.3257 20.2691 20.3255Z" fill="#383737"/>
    <path d="M25.6761 20.3255C26.0345 20.3255 26.3782 20.4685 26.6316 20.7228C26.885 20.9772 27.0273 21.3223 27.0273 21.682V26.4285C27.0273 26.6066 26.9924 26.7829 26.9245 26.9475C26.8566 27.112 26.757 27.2615 26.6315 27.3874C26.5061 27.5133 26.3571 27.6131 26.1932 27.6812C26.0292 27.7493 25.8535 27.7843 25.6761 27.7842C25.318 27.7842 24.9745 27.6413 24.7212 27.3871C24.4679 27.1329 24.3257 26.788 24.3257 26.4285V21.682C24.3257 21.3224 24.4679 20.9775 24.7212 20.7231C24.9744 20.4688 25.3179 20.3257 25.6761 20.3255Z" fill="#383737"/>
</svg>
