<svg width="46" height="46" viewBox="0 0 46 46" fill="none" xmlns="http://www.w3.org/2000/svg">
    <rect x="0.583008" y="0.92041" width="44.6316" height="44.6314" rx="22.3157" fill="white" fill-opacity="0.2"/>
    <path fill-rule="evenodd" clip-rule="evenodd" d="M13.6402 14.8014C13.6425 14.8014 13.5838 14.8624 13.5099 14.9352C13.226 15.2109 12.6381 15.7847 12.6322 16.985C12.6229 18.664 13.727 21.7816 19.0434 27.0968C24.3351 32.3861 27.4479 33.5032 29.1305 33.5032H29.1551C30.3555 33.4973 30.9281 32.9083 31.205 32.6255C31.2894 32.5387 31.3575 32.4753 31.4056 32.4354C32.5742 31.2598 33.1726 30.3844 33.1668 29.8236C33.1586 29.251 32.4463 28.574 31.4619 27.6377C31.1486 27.3396 30.8084 27.0158 30.4493 26.6568C29.5189 25.7287 29.0578 25.8871 28.044 26.2437C26.6419 26.7354 24.7176 27.4042 21.7279 24.4133C18.7336 21.4213 19.4036 19.4994 19.894 18.0973C20.2484 17.0835 20.4103 16.6212 19.4787 15.6896C19.1138 15.3259 18.7864 14.9809 18.4849 14.6641C17.5544 13.6856 16.8833 12.978 16.3142 12.9698H16.3048C15.7428 12.9698 14.8698 13.5706 13.6343 14.8061C13.6378 14.8026 13.6402 14.8014 13.6402 14.8014ZM29.1317 35.2632C26.2077 35.2632 22.3956 32.9353 17.7996 28.3417C13.1861 23.7293 10.8547 19.9054 10.8722 16.9756C10.8828 15.0396 11.8978 14.0481 12.2791 13.6762C12.299 13.6515 12.3671 13.5847 12.3906 13.5612C14.0731 11.8775 15.2077 11.1969 16.3365 11.2096C17.6471 11.2274 18.5799 12.2083 19.7603 13.4509C20.0524 13.7583 20.3692 14.0927 20.7224 14.4447C22.4355 16.1578 21.9474 17.5552 21.5555 18.6769C21.1284 19.9007 20.7588 20.9567 22.9717 23.1696C25.1869 25.3825 26.2429 25.0129 27.462 24.5823C28.5849 24.1904 29.9788 23.7 31.6942 25.413C32.0415 25.7603 32.3713 26.0736 32.6751 26.3634C33.9236 27.5497 34.9092 28.4872 34.9258 29.8013C34.9397 30.9218 34.2591 32.0635 32.5789 33.7449L31.835 33.2403L32.4639 33.8552C32.092 34.2365 31.1017 35.2526 29.1645 35.2632H29.1317Z" fill="white"/>
</svg>
