<svg width="45" height="46" viewBox="0 0 45 46" fill="none" xmlns="http://www.w3.org/2000/svg">
    <rect x="0.00976562" width="44.9804" height="46" rx="22.4902" fill="#FAE08C" fill-opacity="0.1"/>
    <rect x="0.48828" y="0.478515" width="44.0234" height="45.043" rx="22.0117" stroke="#B28D28" stroke-opacity="0.2" stroke-width="0.957029"/>
    <path d="M17.1015 11.9965L18.4367 11.5949C19.1682 11.3744 19.9549 11.4275 20.6501 11.7443C21.3453 12.0612 21.9014 12.6201 22.2148 13.3169L23.2468 15.6121C23.5162 16.2114 23.5913 16.88 23.4614 17.5242C23.3315 18.1683 23.0032 18.7556 22.5226 19.2036L20.8132 20.7975C20.7632 20.844 20.7316 20.9069 20.7239 20.9748C20.6736 21.4291 20.9814 22.3135 21.6908 23.5435C22.2068 24.4371 22.6747 25.0652 23.0718 25.4165C23.3487 25.6625 23.5008 25.7151 23.5661 25.6968L25.8658 24.9931C26.4939 24.801 27.1663 24.8103 27.7888 25.0196C28.4114 25.2289 28.9528 25.6277 29.3372 26.1602L30.8029 28.1922C31.2486 28.8102 31.455 29.5689 31.3836 30.3274C31.3123 31.086 30.9681 31.7929 30.415 32.317L29.4013 33.2781C28.8633 33.7876 28.2025 34.149 27.4832 34.3273C26.764 34.5056 26.0109 34.4945 25.2972 34.2952C22.1461 33.4154 19.3212 30.7563 16.7903 26.373C14.256 21.984 13.3669 18.2036 14.1862 15.0309C14.3706 14.3173 14.7357 13.6632 15.2463 13.1318C15.7569 12.6003 16.3959 12.2093 17.1015 11.9965ZM17.5969 13.6407C17.1737 13.7682 16.7904 14.0026 16.484 14.3212C16.1776 14.6398 15.9584 15.032 15.8475 15.4599C15.1587 18.1281 15.947 21.4794 18.2766 25.5149C20.6027 29.5446 23.1072 31.9016 25.7594 32.643C26.1875 32.7623 26.6391 32.7687 27.0704 32.6616C27.5017 32.5545 27.8979 32.3377 28.2205 32.0321L29.2354 31.071C29.4869 30.8327 29.6434 30.5113 29.6758 30.1664C29.7082 29.8215 29.6143 29.4766 29.4116 29.1957L27.9471 27.1648C27.7723 26.9224 27.5261 26.7409 27.2429 26.6457C26.9597 26.5505 26.6538 26.5464 26.3681 26.6339L24.0626 27.3398C22.7239 27.738 21.5088 26.6613 20.2045 24.4016C19.3258 22.8799 18.9161 21.7014 19.018 20.7849C19.0718 20.3089 19.2926 19.8695 19.6427 19.5423L21.3521 17.9485C21.5706 17.7448 21.72 17.4779 21.7791 17.185C21.8382 16.8922 21.8041 16.5882 21.6816 16.3158L20.6496 14.0206C20.5071 13.7041 20.2545 13.4502 19.9387 13.3062C19.623 13.1622 19.2656 13.138 18.9333 13.2379L17.5969 13.6407Z" fill="#B28D28"/>
</svg>
