<svg width="226" height="164" viewBox="0 0 226 164" fill="none" xmlns="http://www.w3.org/2000/svg">
    <g clip-path="url(#clip0_1_13945)">
        <path d="M47.83 155.93H171.08V7.52997H47.95C47.95 15.79 47.46 24.26 48.11 32.64C48.6 38.89 46.58 42.7 40.57 44.9V-0.0400391H178.94V10.8C183.73 10.8 188.02 10.74 192.31 10.8C199.09 10.93 201.4 14.86 198.47 21.02C197.27 23.54 196.26 26.15 194.8 29.56C199.34 29.56 203.27 29.21 207.1 29.7C209.29 29.98 212.23 31.13 213.1 32.8C213.97 34.47 213.1 37.4 212.35 39.56C211.68 41.48 210.15 43.09 208.46 45.64C212.72 45.64 216.06 45.1799 219.21 45.7899C221.51 46.2399 224.45 47.62 225.4 49.46C226.21 51.03 225.27 54.4599 223.92 56.0399C202.92 80.91 189.07 109.37 180.74 140.66C179.827 144.374 179.249 148.163 179.01 151.98C178.72 155.6 178.94 159.27 178.94 163.29H40.32C40.32 156 39.72 148.5 40.63 141.18C40.98 138.37 44.78 135.99 47.83 132.48V155.93ZM182.53 92.82C190.45 72.95 197.86 54.37 205.18 35.99H192.38C189.15 54.52 185.94 73.06 182.53 92.82ZM191.22 17.82H179.06V69.65C182.96 52.99 187.06 35.51 191.2 17.81L191.22 17.82ZM188.53 96.66L189.18 96.74L217.32 51.93C214.46 51.93 211 51.7299 207.59 52.0399C206.912 52.1533 206.27 52.4193 205.71 52.8178C205.15 53.2162 204.689 53.7368 204.36 54.34C198.97 68.41 193.76 82.55 188.53 96.66Z" fill="#B28D28" fill-opacity="0.5"/>
        <path d="M50.4299 120.85C39.8299 131.44 29.4299 141.78 19.0999 152.16C16.0999 155.16 12.6599 157.9 8.57993 156.22C5.35733 154.777 2.66796 152.361 0.889908 149.31C-1.18009 145.67 0.619933 141.86 3.53993 138.93C12.1199 130.31 20.7233 121.703 29.3499 113.11C31.4599 111 33.6099 108.92 35.9499 106.62C29.3799 94.91 27.7899 82.75 32.0599 70.05C35.223 60.2768 41.858 52.0017 50.7099 46.79C59.4477 41.5914 69.7366 39.6342 79.7729 41.2615C89.8091 42.8888 98.9524 47.9968 105.6 55.69C118.96 70.93 119.53 94.58 106.93 110.53C93.3999 127.64 70.7999 131.86 50.4299 120.85ZM107.43 84.26C107.58 75.0881 104.083 66.2316 97.7085 59.6355C91.3337 53.0395 82.6016 49.243 73.4299 49.08C54.5899 48.65 38.3499 64.28 38.1299 83.08C37.8999 102.82 53.2699 118.65 72.7399 118.74C81.9197 118.761 90.7342 115.145 97.2543 108.683C103.774 102.221 107.469 93.4396 107.53 84.26H107.43Z" fill="#B28D28" fill-opacity="0.5"/>
        <path d="M109.71 29.7001C96.2298 29.7001 82.7098 29.7901 69.2598 29.5801C67.5798 29.5801 65.9298 27.9201 64.2598 27.0301C65.8698 26.0301 67.4798 24.1301 69.0998 24.1101C96.0598 23.9301 123.026 23.9301 150 24.1101C151.68 24.1101 153.35 25.9101 155 26.8701C153.38 27.8201 151.78 29.5601 150.14 29.5801C136.68 29.7901 123.2 29.7001 109.71 29.7001Z" fill="#B28D28" fill-opacity="0.5"/>
        <path d="M109.58 133.76C123.06 133.76 136.58 133.66 150.02 133.88C151.7 133.88 153.36 135.56 155.02 136.46C153.39 137.46 151.77 139.33 150.13 139.34C123.17 139.52 96.2069 139.52 69.2402 139.34C67.5802 139.34 65.9302 137.52 64.2402 136.56C65.8602 135.64 67.4702 133.96 69.1102 133.93C82.5802 133.72 96.1102 133.81 109.55 133.81L109.58 133.76Z" fill="#B28D28" fill-opacity="0.5"/>
        <path d="M106.35 45.9301C121.35 45.9301 135.72 45.8301 150.14 46.0601C151.79 46.0601 153.4 47.9201 155.04 48.9201C153.39 49.8501 151.76 51.5601 150.1 51.6001C139.15 51.8401 128.19 51.4901 117.25 51.8301C112.45 51.9301 109.02 50.5801 106.35 45.9301Z" fill="#B28D28" fill-opacity="0.5"/>
        <path d="M110.78 117.57C112.52 113.02 115.17 111.5 119.66 111.66C129.79 112.02 139.94 111.66 150.07 111.89C151.75 111.89 153.38 113.63 155.07 114.56C153.43 115.56 151.82 117.41 150.17 117.44C137.18 117.68 124.22 117.57 110.78 117.57Z" fill="#B28D28" fill-opacity="0.5"/>
        <path d="M120.83 67.82C130.73 67.82 140.38 67.68 150.01 67.95C151.7 68 153.35 69.73 155.01 70.69C153.4 71.69 151.81 73.46 150.16 73.52C142.52 73.83 134.85 73.42 127.22 73.75C122.94 73.93 120.53 72.93 120.83 67.82Z" fill="#B28D28" fill-opacity="0.5"/>
        <path d="M121.8 95.62C122.07 93.62 122.28 91.94 122.56 89.8C132.2 89.8 141.8 89.7 151.4 89.92C152.63 89.92 153.82 91.59 155.03 92.49C153.77 93.49 152.55 95.49 151.27 95.49C141.53 95.73 131.72 95.62 121.8 95.62Z" fill="#B28D28" fill-opacity="0.5"/>
        <path d="M99.2498 96.69C99.0198 70.12 74.8798 53.92 51.0098 64.51C58.1098 53.95 76.0098 51.26 87.8598 58.22C103.19 67.22 105.45 86.36 99.2498 96.69Z" fill="#B28D28" fill-opacity="0.5"/>
    </g>
    <defs>
        <clipPath id="clip0_1_13945">
            <rect width="225.73" height="163.34" fill="white"/>
        </clipPath>
    </defs>
</svg>
