<svg width="29" height="29" viewBox="0 0 29 29" fill="none" xmlns="http://www.w3.org/2000/svg">
    <path d="M14.2221 2.79257C12.6746 2.79257 11.1423 3.09737 9.71255 3.68957C8.28285 4.28178 6.98379 5.14978 5.88954 6.24403C4.79529 7.33828 3.92728 8.63734 3.33508 10.067C2.74288 11.4967 2.43808 13.0291 2.43808 14.5766C2.43808 16.1241 2.74288 17.6564 3.33508 19.0861C3.92728 20.5159 4.79529 21.8149 5.88954 22.9092C6.98379 24.0034 8.28285 24.8714 9.71255 25.4636C11.1423 26.0558 12.6746 26.3606 14.2221 26.3606C17.3474 26.3606 20.3447 25.1191 22.5547 22.9092C24.7646 20.6992 26.0061 17.7019 26.0061 14.5766C26.0061 11.4513 24.7646 8.45396 22.5547 6.24403C20.3447 4.0341 17.3474 2.79257 14.2221 2.79257ZM0 14.5766C0 10.8047 1.4984 7.18721 4.16556 4.52005C6.83272 1.85289 10.4502 0.354492 14.2221 0.354492C17.994 0.354492 21.6115 1.85289 24.2787 4.52005C26.9458 7.18721 28.4442 10.8047 28.4442 14.5766C28.4442 18.3485 26.9458 21.966 24.2787 24.6331C21.6115 27.3003 17.994 28.7987 14.2221 28.7987C10.4502 28.7987 6.83272 27.3003 4.16556 24.6331C1.4984 21.966 0 18.3485 0 14.5766ZM14.2221 6.85603C14.5454 6.85603 14.8555 6.98446 15.0841 7.21307C15.3127 7.44169 15.4411 7.75175 15.4411 8.07506V14.0727L18.3343 16.9659C18.4541 17.0775 18.5502 17.2121 18.6168 17.3616C18.6834 17.5112 18.7192 17.6726 18.7221 17.8363C18.725 17.9999 18.6949 18.1625 18.6336 18.3143C18.5723 18.4661 18.481 18.604 18.3653 18.7198C18.2495 18.8355 18.1116 18.9268 17.9598 18.9881C17.808 19.0494 17.6455 19.0795 17.4818 19.0766C17.3181 19.0737 17.1567 19.0379 17.0071 18.9713C16.8576 18.9046 16.723 18.8086 16.6114 18.6888L13.3607 15.438C13.132 15.2097 13.0034 14.8998 13.0031 14.5766V8.07506C13.0031 7.75175 13.1315 7.44169 13.3601 7.21307C13.5887 6.98446 13.8988 6.85603 14.2221 6.85603Z" fill="white"/>
</svg>
